<svg width="388" height="365" viewBox="0 0 388 365" fill="none" xmlns="http://www.w3.org/2000/svg">
<path d="M102 52.5L105 45.5L172 44L185.5 45.5L192.5 58L195.5 52.5L202 44H226H278L283.5 50V152.5L288.5 175L281.5 194L258 209.5H239.5L219.5 200.5L213.258 190.5L214.5 194H202L192.5 203.5L189.5 197.5L180 190.5H125H107L102 186.5V52.5Z" fill="white"/>
<path d="M288.5 56H284V151L288.5 159L290.5 169.5L286 186L280 195.5L273.5 203.5L267.5 206.5V208.5H273.5L284 206.5L295.5 203.5L299 198.5V67.5L295.5 62.5L288.5 56Z" fill="#ABDB9A"/>
<path d="M281 212L288 206.5H295.5L312.5 221L322 231.5L319.5 243.5H309.5L302 238.5L288 225.5C285.667 223.333 281 218.7 281 217.5V212Z" fill="#ABDB9A"/>
<path d="M102.5 185V56.5L92 60.5L88.5 67V195L98.5 206.5L190.5 208.5L229 206.5L221 202L212.5 191H210.5L199 195L190.5 202L185 195L164 191H115.5H105.5L102.5 185Z" fill="#ABDB9A"/>
<path d="M52.2949 310V306.924L56.2744 306.24V278.237L52.2949 277.554V274.453H62.6953L74.1455 301.431H74.292L85.376 274.453H96.0938V277.554L92.1143 278.237V306.24L96.0938 306.924V310H83.3252V306.924L87.5244 306.24V281.021L87.4023 280.996L75.8545 308.73H72.6562L60.7178 281.045L60.5957 281.069L60.7666 295.938V306.24L65.0635 306.924V310H52.2949ZM105.933 320.669C105.558 320.669 105.07 320.62 104.468 320.522C103.866 320.441 103.402 320.36 103.076 320.278L103.564 316.494C103.841 316.527 104.224 316.551 104.712 316.567C105.2 316.6 105.534 316.616 105.713 316.616C106.738 316.616 107.568 316.226 108.203 315.444C108.854 314.663 109.456 313.597 110.01 312.246L111.157 309.463L101.807 287.075L98.9746 286.685V283.584H110.059V286.685L106.86 287.173L112.012 300.381L113.257 303.823H113.403L119.507 287.173L116.138 286.685V283.584H127.002V286.685L124.268 287.075L113.867 314.053C113.135 315.973 112.158 317.552 110.938 318.789C109.717 320.042 108.049 320.669 105.933 320.669ZM263.477 310.513C261.312 310.513 259.229 310.195 257.227 309.561C255.225 308.926 253.312 307.949 251.489 306.631V299.038H255.225L256.03 304.629C257.088 305.28 258.236 305.785 259.473 306.143C260.71 306.501 262.044 306.68 263.477 306.68C265.902 306.68 267.782 306.143 269.116 305.068C270.451 303.978 271.118 302.554 271.118 300.796C271.118 299.168 270.516 297.817 269.312 296.743C268.107 295.669 265.959 294.782 262.866 294.082C259.188 293.236 256.38 291.95 254.443 290.225C252.507 288.483 251.538 286.294 251.538 283.657C251.538 281.802 252.026 280.142 253.003 278.677C253.996 277.212 255.371 276.056 257.129 275.21C258.887 274.364 260.938 273.94 263.281 273.94C265.771 273.94 267.969 274.323 269.873 275.088C271.794 275.837 273.372 276.748 274.609 277.822V284.927H270.874L270.068 279.849C269.336 279.263 268.424 278.774 267.334 278.384C266.243 277.993 264.893 277.798 263.281 277.798C261.214 277.798 259.538 278.327 258.252 279.385C256.982 280.443 256.348 281.842 256.348 283.584C256.348 285.114 256.958 286.367 258.179 287.344C259.399 288.304 261.515 289.159 264.526 289.907C268.27 290.835 271.102 292.21 273.022 294.033C274.959 295.84 275.928 298.078 275.928 300.747C275.928 302.651 275.415 304.344 274.39 305.825C273.364 307.29 271.916 308.438 270.044 309.268C268.188 310.098 265.999 310.513 263.477 310.513ZM291.968 310.513C289.526 310.513 287.402 309.959 285.596 308.853C283.789 307.729 282.389 306.175 281.396 304.189C280.42 302.204 279.932 299.909 279.932 297.305V296.23C279.932 293.724 280.444 291.486 281.47 289.517C282.511 287.531 283.887 285.968 285.596 284.829C287.321 283.674 289.201 283.096 291.235 283.096C294.784 283.096 297.469 284.17 299.292 286.318C301.131 288.467 302.051 291.331 302.051 294.912V297.915H284.912L284.839 298.037C284.888 300.576 285.531 302.668 286.768 304.312C288.005 305.939 289.738 306.753 291.968 306.753C293.595 306.753 295.02 306.525 296.24 306.069C297.477 305.597 298.543 304.954 299.438 304.141L301.318 307.266C300.374 308.177 299.121 308.95 297.559 309.585C296.012 310.203 294.149 310.513 291.968 310.513ZM285.059 294.155H297.241V293.521C297.241 291.632 296.737 290.054 295.728 288.784C294.718 287.515 293.221 286.88 291.235 286.88C289.624 286.88 288.249 287.563 287.109 288.931C285.97 290.282 285.27 291.982 285.01 294.033L285.059 294.155ZM305.566 310V306.924L309.546 306.24V275.698L305.566 275.015V271.914H314.355V306.24L318.335 306.924V310H305.566ZM321.68 310V306.924L325.659 306.24V287.148H321.533V283.584H325.659V280.239C325.659 277.424 326.392 275.251 327.856 273.721C329.338 272.174 331.396 271.401 334.033 271.401C334.587 271.401 335.181 271.45 335.815 271.548C336.466 271.629 337.134 271.751 337.817 271.914L337.231 275.576C336.938 275.511 336.54 275.454 336.035 275.405C335.547 275.356 335.083 275.332 334.644 275.332C331.86 275.332 330.469 276.968 330.469 280.239V283.584H336.23V287.148H330.469V306.24L335.01 306.924V310H321.68Z" fill="black"/>
<path d="M128.857 310V305.728L132.642 304.995V279.482L128.857 278.75V274.453H144.653C148.836 274.453 152.1 275.267 154.443 276.895C156.787 278.522 157.959 280.955 157.959 284.194C157.959 285.838 157.52 287.311 156.641 288.613C155.778 289.899 154.517 290.868 152.856 291.519C154.989 291.974 156.584 292.951 157.642 294.448C158.716 295.946 159.253 297.679 159.253 299.648C159.253 303.05 158.13 305.63 155.884 307.388C153.638 309.129 150.456 310 146.338 310H128.857ZM139.771 289.346H144.897C146.802 289.346 148.267 288.955 149.292 288.174C150.317 287.393 150.83 286.253 150.83 284.756C150.83 281.549 148.771 279.946 144.653 279.946H139.771V289.346ZM139.771 304.531H146.338C150.212 304.531 152.148 302.904 152.148 299.648C152.148 297.907 151.725 296.58 150.879 295.669C150.033 294.741 148.698 294.277 146.875 294.277H139.771V304.531ZM174.438 310.513C171.818 310.513 169.572 309.943 167.7 308.804C165.845 307.664 164.421 306.086 163.428 304.067C162.435 302.033 161.938 299.697 161.938 297.061V296.548C161.938 293.927 162.435 291.608 163.428 289.59C164.421 287.555 165.845 285.968 167.7 284.829C169.572 283.674 171.802 283.096 174.39 283.096C176.994 283.096 179.224 283.665 181.079 284.805C182.951 285.944 184.383 287.531 185.376 289.565C186.369 291.584 186.865 293.911 186.865 296.548V297.061C186.865 299.697 186.369 302.033 185.376 304.067C184.383 306.086 182.959 307.664 181.104 308.804C179.248 309.943 177.026 310.513 174.438 310.513ZM174.438 305.044C176.278 305.044 177.62 304.312 178.467 302.847C179.329 301.382 179.761 299.453 179.761 297.061V296.548C179.761 294.204 179.329 292.292 178.467 290.811C177.604 289.329 176.245 288.589 174.39 288.589C172.534 288.589 171.183 289.329 170.337 290.811C169.491 292.292 169.067 294.204 169.067 296.548V297.061C169.067 299.469 169.491 301.406 170.337 302.871C171.183 304.32 172.55 305.044 174.438 305.044ZM202.954 310.513C200.334 310.513 198.088 309.943 196.216 308.804C194.36 307.664 192.936 306.086 191.943 304.067C190.951 302.033 190.454 299.697 190.454 297.061V296.548C190.454 293.927 190.951 291.608 191.943 289.59C192.936 287.555 194.36 285.968 196.216 284.829C198.088 283.674 200.317 283.096 202.905 283.096C205.509 283.096 207.739 283.665 209.595 284.805C211.466 285.944 212.899 287.531 213.892 289.565C214.884 291.584 215.381 293.911 215.381 296.548V297.061C215.381 299.697 214.884 302.033 213.892 304.067C212.899 306.086 211.475 307.664 209.619 308.804C207.764 309.943 205.542 310.513 202.954 310.513ZM202.954 305.044C204.793 305.044 206.136 304.312 206.982 302.847C207.845 301.382 208.276 299.453 208.276 297.061V296.548C208.276 294.204 207.845 292.292 206.982 290.811C206.12 289.329 204.761 288.589 202.905 288.589C201.05 288.589 199.699 289.329 198.853 290.811C198.006 292.292 197.583 294.204 197.583 296.548V297.061C197.583 299.469 198.006 301.406 198.853 302.871C199.699 304.32 201.066 305.044 202.954 305.044ZM217.7 310V305.728L221.143 304.995V276.943L217.334 276.211V271.914H228.247V294.985L235.547 288.296L235.596 288.223L232.886 287.832V283.584H246.631V287.881L243.213 288.735L236.572 294.668L244.458 304.971L247.729 305.728V310H234.521V305.947L236.523 305.483L236.475 305.386L231.763 298.965L228.247 302.114V304.995L231.323 305.728V310H217.7Z" fill="#ABDB9A"/>
<path d="M119.711 71.8331H173.631C175.233 71.8331 176.529 70.5377 176.529 68.935C176.529 67.3324 175.233 66.0369 173.631 66.0369H119.711C118.108 66.0369 116.813 67.3324 116.813 68.935C116.813 70.5377 118.108 71.8331 119.711 71.8331Z" fill="black"/>
<path d="M119.711 94.9399H173.631C175.233 94.9399 176.529 93.6445 176.529 92.0418C176.529 90.4391 175.233 89.1437 173.631 89.1437H119.711C118.108 89.1437 116.813 90.4391 116.813 92.0418C116.813 93.6445 118.108 94.9399 119.711 94.9399Z" fill="black"/>
<path d="M119.711 118.05H173.631C175.233 118.05 176.529 116.754 176.529 115.151C176.529 113.549 175.233 112.253 173.631 112.253H119.711C118.108 112.253 116.813 113.549 116.813 115.151C116.813 116.754 118.108 118.05 119.711 118.05Z" fill="black"/>
<path d="M119.711 141.156H173.631C175.233 141.156 176.529 139.861 176.529 138.258C176.529 136.656 175.233 135.36 173.631 135.36H119.711C118.108 135.36 116.813 136.656 116.813 138.258C116.813 139.861 118.108 141.156 119.711 141.156Z" fill="black"/>
<path d="M119.711 164.269H173.631C175.233 164.269 176.529 162.973 176.529 161.371C176.529 159.768 175.233 158.473 173.631 158.473H119.711C118.108 158.473 116.813 159.768 116.813 161.371C116.813 162.973 118.108 164.269 119.711 164.269Z" fill="black"/>
<path d="M212.147 71.8331H266.066C267.669 71.8331 268.965 70.5377 268.965 68.935C268.965 67.3324 267.669 66.0369 266.066 66.0369H212.147C210.544 66.0369 209.249 67.3324 209.249 68.935C209.249 70.5377 210.547 71.8331 212.147 71.8331Z" fill="black"/>
<path d="M212.147 94.9399H266.066C267.669 94.9399 268.965 93.6445 268.965 92.0418C268.965 90.4391 267.669 89.1437 266.066 89.1437H212.147C210.544 89.1437 209.249 90.4391 209.249 92.0418C209.249 93.6445 210.547 94.9399 212.147 94.9399Z" fill="black"/>
<path d="M212.147 118.05H266.066C267.669 118.05 268.965 116.754 268.965 115.151C268.965 113.549 267.669 112.253 266.066 112.253H212.147C210.544 112.253 209.249 113.549 209.249 115.151C209.249 116.754 210.547 118.05 212.147 118.05Z" fill="black"/>
<path d="M319.905 224.704L299.546 204.341C299.105 203.901 298.621 203.527 298.125 203.182C300.421 200.214 301.708 196.632 301.708 192.85V69.648C301.708 61.1826 294.12 54.6734 286.298 52.6708V51.1C286.298 45.5298 281.768 41 276.201 41H209.738C204.325 41 199.244 43.1098 195.439 46.9354C194.454 47.9207 193.61 49.0191 192.886 50.2045C192.161 49.022 191.321 47.9236 190.338 46.9412C186.533 43.1127 181.453 41 176.033 41H109.582C104.012 41 99.4821 45.5298 99.4821 51.1V52.8649C92.5179 55.2791 86 61.7187 86 69.648V192.847C86 202.579 94.4364 210.497 104.809 210.497H229.599C235.227 213.157 241.345 214.531 247.521 214.531C253.706 214.531 259.911 213.152 265.704 210.497H279.693C277.697 214.34 278.265 219.18 281.484 222.4L301.844 242.762C304.333 245.251 307.605 246.495 310.874 246.495C314.146 246.495 317.418 245.251 319.905 242.762C322.319 240.351 323.646 237.145 323.646 233.734C323.646 230.32 322.319 227.115 319.905 224.704ZM295.911 69.648V192.847C295.911 196.128 294.39 199.177 291.796 201.405C289.469 201.527 287.185 202.429 285.368 204.133L280.618 199.383C287.57 191.491 291.506 181.579 291.686 171.132C291.819 163.486 289.915 156.203 286.292 149.822V61.255C286.292 61.2463 286.298 61.2376 286.298 61.226V58.7336C291.373 60.5073 295.911 64.6719 295.911 69.648ZM199.546 51.0275C202.261 48.3004 205.881 46.7963 209.741 46.7963H276.201C278.572 46.7963 280.502 48.7264 280.502 51.1V61.2144C280.502 61.2231 280.496 61.2318 280.496 61.2434V141.977C280.209 141.672 279.954 141.345 279.656 141.046C265.811 127.205 244.354 125.405 227.8 135.348H212.155C210.553 135.348 209.257 136.644 209.257 138.247C209.257 139.849 210.553 141.145 212.155 141.145H220.151C219.83 141.449 219.488 141.719 219.172 142.034C206.243 154.96 202.954 173.804 209.388 189.303C204.273 189.393 199.476 191.366 195.787 194.893V192.187V61.2289C195.787 57.0121 197.085 53.488 199.546 51.0275ZM105.275 51.1C105.275 48.7264 107.206 46.7963 109.579 46.7963H176.036C179.899 46.7963 183.519 48.3004 186.237 51.0333C188.692 53.4909 189.991 57.0121 189.991 61.2318V192.187V194.908C186.206 191.288 181.276 189.288 176.039 189.288H110.947C107.82 189.288 105.275 186.744 105.275 183.617V178.704V61.2289V51.1ZM91.7963 192.847V69.648C91.7963 65.1211 95.358 61.2086 99.4792 59.1539V61.2318V178.704V183.614V184.48C99.4792 184.791 99.5661 185.072 99.656 185.353C100.502 190.848 105.22 195.085 110.947 195.085H176.036C179.882 195.085 183.505 196.589 186.243 199.328C187.446 200.522 188.46 202.446 189.191 204.704H104.809C97.636 204.701 91.7963 199.383 91.7963 192.847ZM196.587 204.701C197.323 202.431 198.34 200.498 199.54 199.301C202.261 196.58 205.89 195.079 209.75 195.079H212.35C213.981 197.722 215.903 200.229 218.186 202.51C218.966 203.289 219.789 203.996 220.612 204.701H196.587ZM222.284 198.412C208.142 184.269 208.582 160.814 223.27 146.13C230.796 138.603 240.621 134.821 250.321 134.821C259.548 134.821 268.657 138.252 275.555 145.147C282.392 151.984 286.063 161.177 285.89 171.033C285.716 180.927 281.696 190.303 274.567 197.429C259.882 212.114 236.43 212.557 222.284 198.412ZM276.511 203.475L277.737 204.701H275.123C275.598 204.315 276.048 203.883 276.511 203.475ZM315.807 238.667C313.088 241.385 308.663 241.385 305.942 238.667L285.582 218.304C283.864 216.586 283.864 213.789 285.582 212.073L287.388 210.268C287.391 210.265 287.394 210.265 287.397 210.262C287.399 210.259 287.399 210.256 287.402 210.253L288.405 209.251C288.417 209.239 288.428 209.228 288.44 209.219L289.217 208.439C290.048 207.607 291.155 207.15 292.332 207.15C293.509 207.15 294.616 207.607 295.448 208.439L315.807 228.801C317.126 230.12 317.85 231.868 317.85 233.734C317.85 235.595 317.126 237.348 315.807 238.667Z" fill="black"/>
</svg>
